<?xml version='1.0' encoding='utf-8'?>
<svg width="388.57687mm" height="327.508685mm" viewBox="-205.52972 -156.966574 388.57687 327.508685" version="1.1" xmlns="http://www.w3.org/2000/svg">
  <g transform="scale(1,-1)" stroke-linecap="round">
    <g fill="none" stroke="rgb(17,23,39)" stroke-width="0.09" id="Visible">
      <line x1="-205.35472" y1="-61.799597" x2="-205.35472" y2="-60.058821" />
      <line x1="-205.35472" y1="-60.058821" x2="-197.212585" y2="-56.04991" />
      <line x1="-186.969944" y1="-51.006782" x2="-159.39278" y2="-37.428725" />
      <line x1="-205.35472" y1="-61.799597" x2="-35.649093" y2="-145.356872" />
      <line x1="-35.649093" y1="-145.356872" x2="-35.649093" y2="-143.616095" />
      <line x1="-205.35472" y1="-60.058821" x2="-35.649093" y2="-143.616095" />
      <line x1="24.454984" y1="-68.762703" x2="52.032148" y2="-82.34076" />
      <line x1="62.274789" y1="-87.383888" x2="70.416924" y2="-91.392799" />
      <line x1="-35.649093" y1="-143.616095" x2="70.416924" y2="-91.392799" />
      <path d="M -181.136313,-68.501587 A 2.25,1.1078234188139948 0.0 0,1 -180.477303,-67.718237" />
      <path d="M -180.477303,-67.718237 A 2.25,1.1078234188139948 0.0 0,1 -184.977303,-67.718237" />
      <path d="M -184.977303,-67.718237 A 2.25,1.1078234188139948 0.0 0,1 -181.136313,-68.501587" />
      <path d="M -168.408391,-74.768382 A 2.25,1.1078234188139948 0.0 0,1 -167.749381,-73.985033" />
      <path d="M -167.749381,-73.985033 A 2.25,1.1078234188139948 0.0 0,1 -172.249381,-73.985033" />
      <path d="M -172.249381,-73.985033 A 2.25,1.1078234188139948 0.0 0,1 -168.408391,-74.768382" />
      <path d="M -136.588586,-90.435371 A 2.25,1.1078234188139948 0.0 0,1 -135.929576,-89.652022" />
      <path d="M -135.929576,-89.652022 A 2.25,1.1078234188139948 0.0 0,1 -140.429576,-89.652022" />
      <path d="M -140.429576,-89.652022 A 2.25,1.1078234188139948 0.0 0,1 -136.588586,-90.435371" />
      <path d="M -94.162179,-111.32469 A 2.25,1.1078234188139948 0.0 0,1 -93.503169,-110.541341" />
      <path d="M -93.503169,-110.541341 A 2.25,1.1078234188139948 0.0 0,1 -98.003169,-110.541341" />
      <path d="M -98.003169,-110.541341 A 2.25,1.1078234188139948 0.0 0,1 -94.162179,-111.32469" />
      <path d="M -51.735772,-132.214009 A 2.25,1.1078234188139948 0.0 0,1 -51.076762,-131.430659" />
      <path d="M -51.076762,-131.430659 A 2.25,1.1078234188139948 0.0 0,1 -55.576762,-131.430659" />
      <path d="M -55.576762,-131.430659 A 2.25,1.1078234188139948 0.0 0,1 -51.735772,-132.214009" />
      <path d="M -38.069877,-126.986807 A 2.25,1.1078234188139948 0.0 0,1 -41.434627,-127.949106" />
      <path d="M -41.434627,-127.949106 A 2.25,1.1078234188139948 0.0 0,1 -41.139066,-128.497971" />
      <path d="M 40.188109,-90.435371 A 2.25,1.1078234188139948 0.0 0,1 40.847119,-89.652022" />
      <path d="M 40.847119,-89.652022 A 2.25,1.1078234188139948 0.0 0,1 36.347119,-89.652022" />
      <path d="M 36.347119,-89.652022 A 2.25,1.1078234188139948 0.0 0,1 40.188109,-90.435371" />
      <path d="M 47.259177,-83.472265 A 2.25,1.1078234188139948 0.0 0,1 47.918187,-82.688916" />
      <path d="M 47.918187,-82.688916 A 2.25,1.1078234188139948 0.0 0,1 43.418187,-82.688916" />
      <path d="M 43.418187,-82.688916 A 2.25,1.1078234188139948 0.0 0,1 47.259177,-83.472265" />
      <line x1="70.416924" y1="-93.133575" x2="70.416924" y2="-91.392799" />
      <line x1="-35.649093" y1="-145.356872" x2="70.416924" y2="-93.133575" />
      <path d="M -181.335362,-68.588626 A 2.25,1.1078234188139948 0.0 0,1 -184.119244,-68.588626" />
      <path d="M -168.60744,-74.855421 A 2.25,1.1078234188139948 0.0 0,1 -171.391322,-74.855421" />
      <path d="M -136.787635,-90.52241 A 2.25,1.1078234188139948 0.0 0,1 -139.571517,-90.52241" />
      <path d="M -94.361228,-111.411729 A 2.25,1.1078234188139948 0.0 0,1 -97.14511,-111.411729" />
      <path d="M -51.934821,-132.301048 A 2.25,1.1078234188139948 0.0 0,1 -54.718703,-132.301048" />
      <path d="M 39.98906,-90.52241 A 2.25,1.1078234188139948 0.0 0,1 37.205178,-90.52241" />
      <path d="M 47.060128,-83.559304 A 2.25,1.1078234188139948 0.0 0,1 44.276246,-83.559304" />
      <path d="M 60.517429,-86.518624 A 6.0,2.954195783503986 0.0 0,1 62.274789,-84.429692" />
      <path d="M 62.274789,-84.429692 A 6.0,2.954195783503986 0.0 0,1 50.274789,-84.429692" />
      <path d="M 50.274789,-84.429692 A 6.0,2.954195783503986 0.0 0,1 60.517429,-86.518624" />
      <path d="M 60.517429,-93.48173 A 6.0,2.954195783503986 0.0 0,1 62.274789,-91.392799" />
      <path d="M 50.274789,-91.392799 A 6.0,2.954195783503986 0.0 0,1 60.517429,-93.48173" />
      <path d="M 57.865779,-85.213042 A 2.25,1.1078234188139948 0.0 0,1 58.524789,-84.429692" />
      <path d="M 58.524789,-84.429692 A 2.25,1.1078234188139948 0.0 0,1 54.024789,-84.429692" />
      <path d="M 54.024789,-84.429692 A 2.25,1.1078234188139948 0.0 0,1 57.865779,-85.213042" />
      <path d="M -31.406452,-131.778815 A 6.0,2.954195783503986 0.0 0,1 -29.649093,-129.689883" />
      <path d="M -29.649093,-129.689883 A 6.0,2.954195783503986 0.0 0,1 -41.649093,-129.689883" />
      <path d="M -41.649093,-129.689883 A 6.0,2.954195783503986 0.0 0,1 -31.406452,-131.778815" />
      <path d="M -31.406452,-138.741921 A 6.0,2.954195783503986 0.0 0,1 -29.649093,-136.652989" />
      <path d="M -41.649093,-136.652989 A 6.0,2.954195783503986 0.0 0,1 -31.406452,-138.741921" />
      <path d="M -34.058103,-130.473232 A 2.25,1.1078234188139948 0.0 0,1 -33.399093,-129.689883" />
      <path d="M -33.399093,-129.689883 A 2.25,1.1078234188139948 0.0 0,1 -37.899093,-129.689883" />
      <path d="M -37.899093,-129.689883 A 2.25,1.1078234188139948 0.0 0,1 -34.058103,-130.473232" />
      <path d="M -186.969944,-55.184646 A 6.0,2.954195783503986 0.0 0,1 -185.212585,-53.095714" />
      <path d="M -185.212585,-53.095714 A 6.0,2.954195783503986 0.0 0,1 -197.212585,-53.095714" />
      <path d="M -197.212585,-53.095714 A 6.0,2.954195783503986 0.0 0,1 -186.969944,-55.184646" />
      <path d="M -186.969944,-62.147752 A 6.0,2.954195783503986 0.0 0,1 -185.212585,-60.058821" />
      <path d="M -197.212585,-60.058821 A 6.0,2.954195783503986 0.0 0,1 -186.969944,-62.147752" />
      <path d="M -189.621594,-53.879064 A 2.25,1.1078234188139948 0.0 0,1 -188.962585,-53.095714" />
      <path d="M -188.962585,-53.095714 A 2.25,1.1078234188139948 0.0 0,1 -193.462585,-53.095714" />
      <path d="M -193.462585,-53.095714 A 2.25,1.1078234188139948 0.0 0,1 -189.621594,-53.879064" />
      <path d="M 47.060128,-83.559304 A 2.25,1.1078234188139948 0.0 0,1 44.276246,-83.559304" />
      <line x1="-191.212585" y1="-73.985033" x2="-191.212585" y2="-68.762703" />
      <line x1="-191.212585" y1="-73.985033" x2="-49.791228" y2="-143.616095" />
      <line x1="-49.791228" y1="-143.616095" x2="-49.791228" y2="-138.393766" />
      <line x1="-191.212585" y1="-68.762703" x2="-49.791228" y2="-138.393766" />
      <line x1="-167.170954" y1="-81.64445" x2="-145.957751" y2="-92.089109" />
      <line x1="-167.170954" y1="-81.64445" x2="-167.170954" y2="-84.777848" />
      <line x1="-145.957751" y1="-92.089109" x2="-145.957751" y2="-95.222507" />
      <line x1="-167.170954" y1="-84.777848" x2="-145.957751" y2="-95.222507" />
      <line x1="-137.472469" y1="-96.266973" x2="-103.531344" y2="-112.978428" />
      <line x1="-137.472469" y1="-96.266973" x2="-137.472469" y2="-99.400371" />
      <line x1="-103.531344" y1="-112.978428" x2="-103.531344" y2="-116.111826" />
      <line x1="-137.472469" y1="-99.400371" x2="-103.531344" y2="-116.111826" />
      <line x1="-95.046062" y1="-117.156292" x2="-61.104937" y2="-133.867747" />
      <line x1="-61.104937" y1="-133.867747" x2="-61.104937" y2="-137.001144" />
      <line x1="-95.046062" y1="-120.289689" x2="-61.104937" y2="-137.001144" />
      <line x1="-95.046062" y1="-117.156292" x2="-95.046062" y2="-120.289689" />
      <path d="M -181.335362,-68.588626 A 2.25,1.1078234188139948 0.0 0,1 -184.119244,-68.588626" />
      <path d="M -168.60744,-74.855421 A 2.25,1.1078234188139948 0.0 0,1 -171.391322,-74.855421" />
      <path d="M -136.787635,-90.52241 A 2.25,1.1078234188139948 0.0 0,1 -139.571517,-90.52241" />
      <path d="M -94.361228,-111.411729 A 2.25,1.1078234188139948 0.0 0,1 -97.14511,-111.411729" />
      <path d="M -51.934821,-132.301048 A 2.25,1.1078234188139948 0.0 0,1 -54.718703,-132.301048" />
      <line x1="-49.791228" y1="-143.616095" x2="-44.487928" y2="-141.004931" />
      <line x1="-167.170954" y1="-84.777848" x2="-163.988974" y2="-83.211149" />
      <line x1="-137.472469" y1="-99.400371" x2="-134.290489" y2="-97.833672" />
      <line x1="-95.046062" y1="-120.289689" x2="-91.864082" y2="-118.722991" />
      <line x1="-191.212585" y1="-76.596198" x2="-191.212585" y2="-73.985033" />
      <line x1="-191.212585" y1="-76.596198" x2="-49.791228" y2="-146.22726" />
      <line x1="-49.791228" y1="-146.22726" x2="-49.791228" y2="-143.616095" />
      <line x1="-191.212585" y1="-73.985033" x2="-49.791228" y2="-143.616095" />
      <line x1="-49.791228" y1="-143.616095" x2="-44.487928" y2="-141.004931" />
      <line x1="-49.791228" y1="-146.22726" x2="-41.836277" y2="-142.310513" />
      <path d="M 39.98906,-90.52241 A 2.25,1.1078234188139948 0.0 0,1 37.205178,-90.52241" />
      <line x1="-189.798371" y1="-87.737168" x2="-189.798371" y2="-77.292508" />
      <line x1="-189.798371" y1="-87.737168" x2="-169.999381" y2="-97.485517" />
      <line x1="-169.999381" y1="-97.485517" x2="-169.999381" y2="-87.040857" />
      <line x1="-189.798371" y1="-77.292508" x2="-169.999381" y2="-87.040857" />
      <line x1="-169.999381" y1="-97.485517" x2="-159.39278" y2="-92.263187" />
      <path d="M -159.746333,-93.829886 A 8.5,4.185110693297314 0.0 0,1 -158.244411,-92.828604" />
      <path d="M -165.03353,-95.0405 A 8.5,4.185110693297314 0.0 0,1 -159.746333,-93.829886" />
      <path d="M -159.39278,-97.485517 A 9.0,4.431293675255979 0.0 0,1 -156.756741,-94.352119" />
      <path d="M -156.756741,-94.352119 A 9.0,4.431293675255979 0.0 0,1 -156.935628,-93.473005" />
      <path d="M -174.577853,-95.231233 A 9.0,4.431293675255979 0.0 0,1 -159.39278,-97.485517" />
      <path d="M -159.39278,-109.670952 A 9.0,4.431293675255979 0.0 0,1 -156.756741,-106.537555" />
      <path d="M -174.756741,-106.537555 A 9.0,4.431293675255979 0.0 0,1 -159.39278,-109.670952" />
      <path d="M -163.63542,-95.396585 A 3.0,1.477097891751993 0.0 0,1 -162.906795,-94.813425" />
      <path d="M -166.533198,-95.778886 A 3.0,1.477097891751993 0.0 0,1 -163.63542,-95.396585" />
      <line x1="-169.292274" y1="-62.32183" x2="-42.013054" y2="-124.989786" />
      <line x1="-42.013054" y1="-124.989786" x2="34.354479" y2="-87.389013" />
      <line x1="-169.292274" y1="-59.710665" x2="-159.39278" y2="-54.836491" />
      <line x1="24.454984" y1="-79.903673" x2="34.354479" y2="-84.777848" />
      <line x1="-169.292274" y1="-59.710665" x2="-42.013054" y2="-122.378621" />
      <line x1="-42.013054" y1="-122.378621" x2="34.354479" y2="-84.777848" />
      <path d="M -144.048562,-69.354567 A 1.7,0.8370221386594627 0.0 0,1 -143.550644,-68.762703" />
      <path d="M -143.550644,-68.762703 A 1.7000000000000026,0.8370221386594641 0.0 0,1 -146.950644,-68.762703" />
      <path d="M -146.950644,-68.762703 A 1.7,0.8370221386594627 0.0 0,1 -144.048562,-69.354567" />
      <path d="M -101.622156,-90.243886 A 1.7,0.8370221386594627 0.0 0,1 -101.124237,-89.652022" />
      <path d="M -101.124237,-89.652022 A 1.7000000000000026,0.8370221386594641 0.0 0,1 -104.524237,-89.652022" />
      <path d="M -104.524237,-89.652022 A 1.7,0.8370221386594627 0.0 0,1 -101.622156,-90.243886" />
      <path d="M -59.195749,-111.133205 A 1.7,0.8370221386594627 0.0 0,1 -58.69783,-110.541341" />
      <path d="M -58.69783,-110.541341 A 1.7,0.8370221386594627 0.0 0,1 -62.09783,-110.541341" />
      <path d="M -62.09783,-110.541341 A 1.7,0.8370221386594627 0.0 0,1 -59.195749,-111.133205" />
      <line x1="-159.39278" y1="-59.014355" x2="-40.59884" y2="-117.504447" />
      <line x1="24.454984" y1="-85.474158" x2="-40.59884" y2="-117.504447" />
      <line x1="-40.59884" y1="-117.504447" x2="-40.59884" y2="-66.151538" />
      <line x1="-40.59884" y1="-66.151538" x2="24.454984" y2="-34.12125" />
      <line x1="24.454984" y1="-85.474158" x2="24.454984" y2="-34.12125" />
      <line x1="-159.39278" y1="-7.661446" x2="-111.359771" y2="15.988372" />
      <line x1="-101.359771" y1="20.912032" x2="-94.338956" y2="24.368843" />
      <line x1="-94.338956" y1="24.368843" x2="-56.361313" y2="5.669944" />
      <line x1="-35.184627" y1="-4.756736" x2="-3.87954" y2="-20.170295" />
      <line x1="6.12046" y1="-25.093954" x2="24.454984" y2="-34.12125" />
      <line x1="-159.39278" y1="-7.661446" x2="-40.59884" y2="-66.151538" />
      <path d="M -98.581596,-5.572514 A 11.0,5.416025603090641 0.0 0,1 -95.359771,-1.742806" />
      <path d="M -117.359771,-1.742806 A 11.0,5.416025603090641 0.0 0,1 -98.581596,-5.572514" />
      <path d="M -98.581596,-5.572514 A 3.0,1.477097891751993 0.0 0,1 -99.460276,-6.61698" />
      <path d="M -99.460276,-6.61698 A 3.0,1.477097891751993 0.0 0,1 -94.338956,-7.661446" />
      <path d="M -94.338956,-7.661446 A 3.0,1.477097891751993 0.0 0,1 -93.460276,-6.61698" />
      <path d="M -93.460276,-6.61698 A 3.0,1.477097891751993 0.0 0,1 -98.581596,-5.572514" />
      <path d="M -93.769145,-7.269771 A 3.0,1.477097891751993 0.0 0,1 -99.151407,-7.269771" />
      <path d="M -98.581596,6.612922 A 11.0,5.416025603090641 0.0 0,1 -95.359771,10.44263" />
      <path d="M -95.359771,10.44263 A 11.0,5.416025603090641 0.0 0,1 -101.359771,15.266812" />
      <path d="M -111.359771,15.266812 A 11.0,5.416025603090641 0.0 0,1 -117.359771,10.44263" />
      <path d="M -117.359771,10.44263 A 11.0,5.416025603090641 0.0 0,1 -98.581596,6.612922" />
      <line x1="-98.581596" y1="-5.572514" x2="-98.581596" y2="6.612922" />
      <path d="M -102.753526,8.667038 A 5.1,2.5110664159783878 0.0 0,1 -101.259771,10.44263" />
      <path d="M -101.259771,10.44263 A 5.1,2.5110664159783878 0.0 0,1 -101.359771,10.937452" />
      <path d="M -111.359771,10.937452 A 5.1,2.5110664159783878 0.0 0,1 -111.459771,10.44263" />
      <path d="M -111.459771,10.44263 A 5.1,2.5110664159783878 0.0 0,1 -102.753526,8.667038" />
      <line x1="-159.39278" y1="-59.014355" x2="-159.39278" y2="-7.661446" />
      <line x1="-42.013054" y1="-124.989786" x2="-42.013054" y2="-122.378621" />
      <line x1="34.354479" y1="-87.389013" x2="34.354479" y2="-84.777848" />
      <line x1="-169.292274" y1="-62.32183" x2="-169.292274" y2="-59.710665" />
      <line x1="-169.292274" y1="-63.192218" x2="-169.292274" y2="-62.32183" />
      <line x1="-169.292274" y1="-63.192218" x2="-42.013054" y2="-125.860174" />
      <line x1="-42.013054" y1="-125.860174" x2="-42.013054" y2="-124.989786" />
      <line x1="-169.292274" y1="-62.32183" x2="-42.013054" y2="-124.989786" />
      <line x1="-42.013054" y1="-124.989786" x2="34.354479" y2="-87.389013" />
      <line x1="34.354479" y1="-88.259401" x2="34.354479" y2="-87.389013" />
      <line x1="-42.013054" y1="-125.860174" x2="34.354479" y2="-88.259401" />
      <path d="M -88.682101,135.778542 A 25.0,12.309149097933275 0.0 0,1 -81.359771,144.482425" />
      <path d="M -81.359771,144.482425 A 25.0,12.309149097933275 0.0 0,1 -131.359771,144.482425" />
      <path d="M -131.359771,144.482425 A 25.0,12.309149097933275 0.0 0,1 -88.682101,135.778542" />
      <path d="M -88.682101,121.85233 A 25.0,12.309149097933275 0.0 0,1 -81.359771,130.556213" />
      <path d="M -131.359771,130.556213 A 25.0,12.309149097933275 0.0 0,1 -88.682101,121.85233" />
      <path d="M -36.002646,-29.421153 A 4.5,2.2156468376279896 0.0 0,1 -34.684627,-27.854454" />
      <path d="M -34.684627,-27.854454 A 4.5,2.2156468376279896 0.0 0,1 -35.184627,-26.839416" />
      <path d="M -39.134374,-30.069963 A 4.5,2.2156468376279896 0.0 0,1 -36.002646,-29.421153" />
      <path d="M -36.002646,-36.384259 A 4.5,2.2156468376279896 0.0 0,1 -34.684627,-34.81756" />
      <path d="M -39.134374,-37.033069 A 4.5,2.2156468376279896 0.0 0,1 -36.002646,-36.384259" />
      <path d="M -36.3562,-29.247075 A 4.0,1.969463855669324 0.0 0,1 -35.184627,-27.854454" />
      <path d="M -39.134374,-29.823763 A 4.0,1.969463855669324 0.0 0,1 -36.3562,-29.247075" />
      <path d="M -36.3562,40.383987 A 4.0,1.969463855669324 0.0 0,1 -35.184627,41.776608" />
      <path d="M -35.184627,41.776608 A 4.0,1.969463855669324 0.0 0,1 -39.134374,43.745917" />
      <path d="M -39.134374,39.8073 A 4.0,1.969463855669324 0.0 0,1 -36.3562,40.383987" />
      <path d="M -40.59884,46.302627 A 5.0,2.4618298195866553 0.0 0,1 -39.134374,48.043404" />
      <path d="M -39.134374,48.043404 A 5.0,2.4618298195866553 0.0 0,1 -49.134374,48.043404" />
      <path d="M -49.134374,48.043404 A 5.0,2.4618298195866553 0.0 0,1 -40.59884,46.302627" />
      <path d="M -40.59884,-49.440084 A 5.0,2.4618298195866553 0.0 0,1 -39.134374,-47.699307" />
      <path d="M -49.134374,-47.699307 A 5.0,2.4618298195866553 0.0 0,1 -40.59884,-49.440084" />
      <path d="M -40.952394,-56.229112 A 4.5,2.2156468376279896 0.0 0,1 -39.634374,-54.662413" />
      <path d="M -48.634374,-54.662413 A 4.5,2.2156468376279896 0.0 0,1 -40.952394,-56.229112" />
      <path d="M 4.655994,68.584567 A 5.0,2.4618298195866553 0.0 0,1 6.12046,70.325344" />
      <path d="M 6.12046,70.325344 A 5.0,2.4618298195866553 0.0 0,1 -3.87954,70.325344" />
      <path d="M -3.87954,70.325344 A 5.0,2.4618298195866553 0.0 0,1 4.655994,68.584567" />
      <path d="M 4.655994,-27.158144 A 5.0,2.4618298195866553 0.0 0,1 6.12046,-25.417367" />
      <path d="M -3.87954,-25.417367 A 5.0,2.4618298195866553 0.0 0,1 4.655994,-27.158144" />
      <path d="M 4.30244,-33.947172 A 4.5,2.2156468376279896 0.0 0,1 5.62046,-32.380473" />
      <path d="M -3.37954,-32.380473 A 4.5,2.2156468376279896 0.0 0,1 4.30244,-33.947172" />
      <path d="M -51.205442,-1.046495 A 8.0,3.938927711338648 0.0 0,1 -49.134374,0.720225" />
      <path d="M -49.134374,2.757269 A 8.0,3.938927711338648 0.0 0,1 -64.862296,1.738747" />
      <path d="M -64.862296,1.738747 A 8.0,3.938927711338648 0.0 0,1 -51.205442,-1.046495" />
      <path d="M -51.205442,-8.009601 A 8.0,3.938927711338648 0.0 0,1 -49.134374,-6.242881" />
      <path d="M -64.862296,-5.224359 A 8.0,3.938927711338648 0.0 0,1 -51.205442,-8.009601" />
      <path d="M 143.547168,-118.14657 C 144.301874,-117.816554 145.045742,-117.607644 145.777475,-117.498656 C 146.203885,-117.436095 146.621198,-117.405727 147.029414,-117.40755 C 147.433285,-117.407922 147.845916,-117.439035 148.267305,-117.500891 C 148.901463,-117.594256 149.551868,-117.764032 150.177357,-117.99827 C 152.157502,-118.736379 153.890711,-120.09798 155.169963,-121.523233" />
      <path d="M 143.547168,-118.14657 C 140.622277,-119.303815 137.645472,-120.404622 134.70824,-121.551153" />
      <path d="M 81.156059,-116.166685 C 81.155744,-114.929385 81.322807,-113.335395 81.648386,-111.46928 C 81.973368,-109.604187 82.456721,-107.467791 83.072804,-105.173432 C 84.301403,-100.586939 86.072458,-95.367126 88.026352,-90.573895 C 89.00197,-88.177054 90.02007,-85.888234 91.026639,-83.828862 C 92.033252,-81.768625 93.027891,-79.938743 93.957788,-78.436296 C 94.88793,-76.932615 95.75292,-75.75703 96.50687,-74.97191 C 97.261238,-74.185319 97.904232,-73.789538 98.401742,-73.805564" />
      <path d="M 82.217807,-119.173083 C 81.52243,-119.039394 81.154583,-117.997814 81.156059,-116.166685" />
      <path d="M 129.432526,-123.916977 C 129.752145,-123.7189 130.111039,-123.529048 130.483528,-123.345377 C 131.137645,-123.02389 131.834485,-122.720209 132.540537,-122.424531 C 133.255035,-122.127353 133.977603,-121.836228 134.70824,-121.551153" />
      <path d="M 155.169963,-121.523233 C 155.819701,-122.246782 156.35364,-122.986908 156.745336,-123.67668 C 157.293122,-124.641197 157.558626,-125.499556 157.509157,-126.133778" />
      <path d="M 169.375087,-120.636197 C 169.372984,-117.310091 169.753125,-113.175565 170.455729,-108.882823 C 171.1548,-104.591726 172.17348,-100.15989 173.351569,-96.284275 C 174.52793,-92.402454 175.858907,-89.092647 177.135186,-86.875364 C 177.773263,-85.763736 178.397268,-84.920112 178.98182,-84.378805 C 179.566486,-83.836625 180.111549,-83.596901 180.594838,-83.669386" />
      <path d="M 180.594838,-83.669386 C 181.253958,-83.766017 181.797139,-84.446495 182.183745,-85.659913 C 182.57118,-86.870514 182.801699,-88.612983 182.858055,-90.756968 C 182.915333,-92.898834 182.7984,-95.440321 182.516002,-98.191302 C 182.234478,-100.941182 181.78774,-103.898123 181.209207,-106.840922 C 180.63137,-109.783802 179.922249,-112.709936 179.134893,-115.400423 C 178.347949,-118.092164 177.483467,-120.545877 176.606117,-122.578003 C 175.728832,-124.612365 174.839456,-126.223342 174.004521,-127.290418 C 173.169296,-128.360375 172.389251,-128.885486 171.722741,-128.826468" />
      <path d="M 171.722741,-128.826468 C 170.988539,-128.765484 170.393066,-127.995111 169.990017,-126.584818 C 169.585741,-125.178592 169.374412,-123.13427 169.375087,-120.636197" />
      <path d="M 150.93062,-130.329376 C 150.113042,-128.3542 148.852555,-125.918034 147.485641,-123.67046 C 146.859271,-122.638805 146.213143,-121.648263 145.587408,-120.759696 C 144.857611,-119.722803 144.158641,-118.82949 143.547168,-118.14657" />
      <path d="M 151.736058,-134.73173 L 151.745024,-134.727073" />
      <path d="M 151.745024,-134.727073 C 151.912723,-134.635646 151.995819,-134.406428 151.994313,-134.039418 C 151.992549,-133.293034 151.61441,-131.973922 150.93062,-130.329376" />
      <path d="M 118.428911,-130.747242 A 9.66,1.7123250157642769 -59.92319030439152 0,0 118.436875,-130.742465" />
      <path d="M 118.436875,-130.742465 A 9.66,1.7123250157642769 -59.92319030439152 0,0 127.360578,-143.412419" />
      <path d="M 128.471291,-147.271548 L 128.48686,-147.261556" />
      <path d="M 128.48686,-147.261556 C 128.622531,-147.160587 128.548062,-146.756887 128.255139,-146.113561" />
      <path d="M 128.255139,-146.113561 A 9.66,1.7123250157644863 120.076809695609 0,1 127.360578,-143.412419" />
      <path d="M 70.000189,-78.887223 A 7.36,2.569648759271542 87.7001431473321 0,0 71.277723,-77.98965" />
      <path d="M 71.277723,-77.98965 A 7.36,2.569648759271542 87.7001431473321 0,0 71.298991,-77.990251" />
      <path d="M 68.420404,-85.852156 A 7.36,2.569648759271542 87.7001431473321 0,0 70.000189,-78.887223" />
      <path d="M 52.085295,-104.599957 A 8.464,1.7212198739389757 92.6261326706952 0,0 52.840323,-103.570991" />
      <path d="M 52.840323,-103.570991 A 8.464,1.7212198739389757 92.6261326706952 0,0 52.848005,-103.570554" />
      <path d="M 54.08483,-120.464329 Q 54.047896,-120.470736 54.010269,-120.471634" />
      <path d="M 54.010269,-120.471634 C 53.629124,-120.482925 53.198037,-120.058352 52.769817,-119.266853 C 52.659692,-119.063644 52.549279,-118.838205 52.438579,-118.590535" />
      <path d="M 52.438579,-118.590535 A 8.464,1.7212198739389757 92.6261326706952 0,0 52.085295,-104.599957" />
      <path d="M 116.464051,-132.25456 L 116.464877,-132.253774" />
      <path d="M 116.464877,-132.253774 Q 116.515031,-132.209654 116.784424,-132.433771" />
      <path d="M 128.255139,-146.113561 C 127.786933,-145.417649 126.997675,-144.354884 126.012319,-143.09358 C 124.878968,-141.641976 123.488951,-139.932334 122.132242,-138.32113 C 120.950452,-136.917018 119.801105,-135.595707 118.867715,-134.567324 C 117.908029,-133.509362 117.174607,-132.757985 116.784424,-132.433771" />
      <path d="M 103.642581,-144.34087 A 8.82,0.4501153205258559 129.682428172639 0,1 103.350412,-144.175173" />
      <path d="M 103.350412,-144.175173 A 8.82,0.4501153205258559 129.682428172639 0,1 103.349628,-144.175854" />
      <path d="M 114.724987,-157.667031 L 114.724961,-157.667053" />
      <path d="M 114.724961,-157.667053 Q 114.720006,-157.669945 114.536179,-157.490126" />
      <path d="M 114.536179,-157.490126 A 8.82,0.4501153205258559 129.682428172639 0,1 103.642581,-144.34087" />
      <path d="M 51.702937,-103.701628 A 8.648000000000001,2.142341960498217 91.16880320543211 0,0 51.684449,-102.356809" />
      <path d="M 68.34074,-79.073036 C 68.156871,-79.359324 67.994304,-79.707032 67.853041,-80.116162 C 67.676994,-80.628233 67.541143,-81.233135 67.456349,-81.897704 C 67.301604,-83.098373 67.31666,-84.494045 67.500949,-85.866517" />
      <path d="M 68.34074,-79.073036 C 68.669074,-78.559004 69.07195,-78.22734 69.524448,-78.134497" />
      <path d="M 69.524448,-78.134497 L 69.571811,-78.125683" />
      <path d="M 51.704757,-81.790395 A 6.72,2.833494764915206 97.382490888468 0,0 52.831279,-80.923497" />
      <path d="M 52.831279,-80.923497 A 6.72,2.833494764915206 97.382490888468 0,0 52.874731,-80.917053" />
      <path d="M 51.531282,-82.094151 A 6.72,2.833494764915206 97.382490888468 0,0 51.704757,-81.790395" />
      <path d="M 50.97826,-103.868654 L 50.95638,-103.874378" />
      <path d="M 50.95638,-103.874378 C 50.629247,-103.964943 50.362464,-104.310258 50.17425,-104.852591" />
      <path d="M 52.438579,-118.590535 C 52.006066,-117.813198 51.583641,-116.814034 51.21293,-115.691443 C 50.699711,-114.142188 50.288908,-112.359133 50.055842,-110.670335 C 49.939131,-109.829088 49.86555,-109.011867 49.838367,-108.258671 C 49.810441,-107.491609 49.830957,-106.791343 49.896499,-106.196192 C 49.956155,-105.65935 50.048738,-105.211483 50.17425,-104.852591" />
      <path d="M 33.64776,-124.003947 Q 33.60276,-124.017727 33.556186,-124.025807" />
      <path d="M 33.556186,-124.025807 C 33.148554,-124.0981 32.65172,-123.833525 32.124766,-123.270025" />
      <path d="M 32.124766,-123.270025 A 7.727999999999999,2.176545549869998 101.76911649022261 0,0 29.203105,-113.425857" />
      <path d="M 101.866497,-145.751713 L 101.865572,-145.752908" />
      <path d="M 101.865572,-145.752908 C 101.798314,-145.83737 102.215209,-146.363012 103.027914,-147.220182 C 103.829388,-148.066683 105.018007,-149.236844 106.360815,-150.500735 C 108.09351,-152.133038 110.063674,-153.90058 111.631603,-155.229128 C 112.295879,-155.792491 112.889201,-156.27908 113.374409,-156.658433 C 113.896839,-157.067011 114.29356,-157.350983 114.536179,-157.490126" />
      <path d="M 92.691601,-157.147711 A 7.98,0.44765621930118776 137.57844134516353 0,0 92.650994,-157.004992" />
      <path d="M 92.650994,-157.004992 A 7.98,0.44765621930118776 137.57844134516353 0,0 92.651886,-157.003961" />
      <path d="M 104.433583,-167.770261 A 7.98,0.44765621930118776 137.57844134516353 0,0 104.432637,-167.771242" />
      <path d="M 104.432637,-167.771242 A 7.98,0.44765621930118776 137.57844134516353 0,0 92.691601,-157.147711" />
      <path d="M 50.626983,-103.95426 Q 50.532689,-103.458038 50.457639,-102.960848" />
      <path d="M 50.745001,-81.707013 Q 51.018286,-81.426914 51.351217,-81.299571" />
      <path d="M 51.351217,-81.299571 L 51.414937,-81.276995" />
      <path d="M 32.124766,-123.270025 C 31.327608,-122.539882 30.462924,-121.258172 29.726431,-119.714208 C 28.879865,-117.951648 28.214078,-115.861906 27.922003,-114.056628" />
      <path d="M 17.272384,-129.017763 A 6.991999999999999,2.3648180434243757 109.38316070235864 0,0 17.241103,-129.028051" />
      <path d="M 17.241103,-129.028051 A 6.991999999999999,2.3648180434243757 109.38316070235864 0,0 12.272068,-121.762123" />
      <line x1="62.274789" y1="-91.392799" x2="62.274789" y2="-84.429692" />
      <line x1="50.274789" y1="-91.392799" x2="50.274789" y2="-84.429692" />
      <line x1="-29.649093" y1="-136.652989" x2="-29.649093" y2="-129.689883" />
      <line x1="-41.649093" y1="-136.652989" x2="-41.649093" y2="-129.689883" />
      <line x1="-185.212585" y1="-60.058821" x2="-185.212585" y2="-53.095714" />
      <line x1="-197.212585" y1="-60.058821" x2="-197.212585" y2="-53.095714" />
      <line x1="-156.756741" y1="-106.537555" x2="-156.756741" y2="-94.352119" />
      <line x1="-174.756741" y1="-106.537555" x2="-174.756741" y2="-95.143155" />
      <line x1="-95.359771" y1="-1.742806" x2="-95.359771" y2="10.44263" />
      <line x1="-117.359771" y1="-1.742806" x2="-117.359771" y2="10.44263" />
      <line x1="-81.359771" y1="130.556213" x2="-81.359771" y2="144.482425" />
      <line x1="-131.359771" y1="130.556213" x2="-131.359771" y2="144.482425" />
      <line x1="-101.359771" y1="9.947808" x2="-101.359771" y2="118.495759" />
      <line x1="-111.359771" y1="9.947808" x2="-111.359771" y2="118.495759" />
      <line x1="-34.684627" y1="-34.81756" x2="-34.684627" y2="-27.854454" />
      <line x1="-35.184627" y1="-27.854454" x2="-35.184627" y2="41.776608" />
      <line x1="-39.134374" y1="-47.699307" x2="-39.134374" y2="48.043404" />
      <line x1="-49.134374" y1="-47.699307" x2="-49.134374" y2="48.043404" />
      <line x1="-39.634374" y1="-54.662413" x2="-39.634374" y2="-48.772394" />
      <line x1="-48.634374" y1="-54.662413" x2="-48.634374" y2="-48.772394" />
      <line x1="6.12046" y1="-25.417367" x2="6.12046" y2="70.325344" />
      <line x1="-3.87954" y1="-25.417367" x2="-3.87954" y2="70.325344" />
      <line x1="5.62046" y1="-32.380473" x2="5.62046" y2="-26.490454" />
      <line x1="-3.37954" y1="-32.380473" x2="-3.37954" y2="-26.490454" />
      <line x1="-64.862296" y1="-5.224359" x2="-64.862296" y2="1.738747" />
      <path d="M 98.401742,-73.805564 C 107.120038,-74.072961 115.822081,-74.643959 124.397213,-75.467578 C 132.968088,-76.289034 141.412051,-77.363112 149.499215,-78.578248 C 157.302585,-79.744192 164.752183,-81.045658 171.528948,-82.20061 C 174.696809,-82.73857 177.717593,-83.240513 180.594838,-83.669386" />
      <path d="M 82.217807,-119.173083 C 90.27928,-120.76851 98.409048,-122.10117 106.620172,-123.207756 C 113.328131,-124.112663 120.09241,-124.866138 126.883277,-125.49937" />
      <path d="M 157.255511,-127.764833 C 162.160702,-128.08955 166.992319,-128.419214 171.722741,-128.826468" />
      <path d="M 151.740616,-134.729449 A 10.5,10.5 -96.4850690739892 0,1 157.509157,-126.133778" />
      <line x1="118.432825" y1="-130.744812" x2="129.432526" y2="-123.916977" />
      <line x1="128.479486" y1="-147.267131" x2="151.745024" y2="-134.727073" />
      <line x1="71.277723" y1="-77.98965" x2="94.003221" y2="-78.363044" />
      <line x1="52.840323" y1="-103.570991" x2="84.147657" y2="-101.444746" />
      <line x1="54.010269" y1="-120.471634" x2="85.090725" y2="-119.729968" />
      <path d="M 118.436875,-130.742465 A 9.66,9.66 -96.4850690739892 0,1 116.464456,-132.254157" />
      <line x1="103.350012" y1="-144.175504" x2="116.464877" y2="-132.253774" />
      <line x1="114.724961" y1="-157.667053" x2="128.48686" y2="-147.261556" />
      <line x1="62.274789" y1="-85.948142" x2="90.225256" y2="-85.511596" />
      <line x1="64.897468" y1="-94.110391" x2="86.988346" y2="-93.205682" />
      <path d="M 71.288016,-77.989819 A 7.36,7.36 -96.4850690739892 0,1 69.524448,-78.134497" />
      <line x1="52.831279" y1="-80.923497" x2="69.549235" y2="-78.129456" />
      <path d="M 52.844121,-103.570733 A 8.464,8.464 -96.4850690739892 0,1 50.95638,-103.874378" />
      <line x1="46.296697" y1="-105.009554" x2="50.967508" y2="-103.871274" />
      <line x1="33.556186" y1="-124.025807" x2="54.047902" y2="-120.470736" />
      <path d="M 103.350412,-144.175173 A 8.82,8.82 -96.4850690739892 0,1 101.865572,-145.752908" />
      <line x1="92.650994" y1="-157.004992" x2="101.866019" y2="-145.752296" />
      <line x1="104.432637" y1="-167.771242" x2="114.724975" y2="-157.667042" />
      <path d="M 52.851892,-80.920052 A 6.72,6.72 -96.4850690739892 0,1 51.351217,-81.299571" />
      <line x1="50.489752" y1="-81.581337" x2="51.384877" y2="-81.286884" />
      <line x1="17.241103" y1="-129.028051" x2="33.602765" y2="-124.017726" />
      <path d="M 92.651426,-157.004464 A 7.98,7.98 -96.4850690739892 0,1 91.317577,-158.999266" />
      <path d="M 91.317577,-158.999266 A 7.98,7.98 -96.4850690739892 0,1 104.433123,-167.770764" />
      <path d="M 8.100247,-123.816186 A 6.991999999999999,6.991999999999999 -96.4850690739892 0,1 17.256377,-129.023373" />
    </g>
  </g>
</svg>